<svg width="1044" height="200" viewBox="0 0 1044 200" fill="none" xmlns="http://www.w3.org/2000/svg">
<g clip-path="url(#clip0_1_2)">
<path fill-rule="evenodd" clip-rule="evenodd" d="M200 100C200 44.7722 155.228 0 100 0C44.7722 0 0 44.7722 0 100C0 155.231 44.7722 200 100 200C155.228 200 200 155.231 200 100ZM81.7988 44.4444C81.0126 45.9874 81.0126 48.0072 81.0126 52.047V74.9426C81.0126 75.9517 81.0126 76.4562 81.14 76.9227C81.2529 77.336 81.4385 77.7259 81.6881 78.0741C81.9698 78.4671 82.3614 78.7852 83.1446 79.4214L88.9362 84.1262C89.8802 84.8931 90.3522 85.2765 90.5236 85.7381C90.6739 86.143 90.6739 86.5883 90.5236 86.9932C90.3522 87.4548 89.8802 87.8383 88.9362 88.6051L83.1447 93.3098C82.3615 93.9461 81.9698 94.2642 81.6881 94.6572C81.4385 95.0054 81.2529 95.3953 81.14 95.8086C81.0126 96.2751 81.0126 96.7796 81.0126 97.7887V147.952C81.0126 151.992 81.0126 154.012 81.7988 155.555C82.4904 156.912 83.5938 158.016 84.9511 158.707C86.494 159.493 88.5139 159.493 92.5536 159.493H107.446C111.486 159.493 113.506 159.493 115.049 158.707C116.406 158.016 117.51 156.912 118.201 155.555C118.987 154.012 118.987 151.992 118.987 147.952V125.057C118.987 124.048 118.987 123.543 118.86 123.077C118.747 122.663 118.561 122.273 118.312 121.925C118.03 121.532 117.638 121.214 116.855 120.578L111.064 115.873C110.12 115.106 109.648 114.723 109.476 114.261C109.326 113.856 109.326 113.411 109.476 113.006C109.648 112.544 110.12 112.161 111.064 111.394L116.855 106.689C117.638 106.053 118.03 105.735 118.312 105.342C118.561 104.994 118.747 104.604 118.86 104.191C118.987 103.724 118.987 103.22 118.987 102.211V52.047C118.987 48.0072 118.987 45.9874 118.201 44.4444C117.51 43.0872 116.406 41.9837 115.049 41.2921C113.506 40.506 111.486 40.506 107.446 40.506H92.5536C88.5139 40.506 86.494 40.506 84.9511 41.2921C83.5938 41.9837 82.4904 43.0872 81.7988 44.4444Z" fill="#303136"/>
<path d="M280.189 159.44C281.18 159.44 281.984 158.636 281.984 157.645V40.1465C281.984 39.1554 281.18 38.3521 280.189 38.3521H262.862C262.22 38.3521 261.633 38.6993 261.28 39.2353C257.308 45.2725 249.921 48.3132 239.797 48.6298C238.806 48.6607 238 49.4608 238 50.4518V68.0257C238 69.0168 238.804 69.8201 239.795 69.8201H253.798C254.79 69.8201 255.594 70.6235 255.594 71.6145V157.645C255.594 158.636 256.397 159.44 257.389 159.44H280.189Z" fill="#303136"/>
<path d="M349.359 62.6432C358.705 62.6432 366.219 67.6119 366.219 80.1255C366.219 92.2711 358.705 97.6077 349.359 97.6077H329.016V62.6432H349.359ZM349.359 120.243C376.849 120.243 392.793 103.497 392.793 79.3894C392.793 56.5704 376.849 39.8242 349.359 39.8242H304.605C303.613 39.8242 302.809 40.6276 302.809 41.6186V157.645C302.809 158.636 303.613 159.44 304.605 159.44H327.221C328.212 159.44 329.016 158.636 329.016 157.645V122.037C329.016 121.046 329.82 120.243 330.812 120.243H349.359Z" fill="#303136"/>
<path d="M433.441 142.51C425.744 142.51 420.979 139.013 420.979 132.756C420.979 127.236 424.278 123.555 432.158 123.555H453.6V125.395C453.6 136.069 444.437 142.51 433.441 142.51ZM455.616 157.645C455.616 158.636 456.42 159.44 457.412 159.44H477.096C478.087 159.44 478.891 158.636 478.891 157.645V105.705C478.891 80.6776 464.78 66.1397 439.306 66.1397C420.392 66.1397 405.911 76.2401 399.974 92.4782C399.617 93.4535 400.209 94.5051 401.218 94.7524L421.05 99.6132C421.946 99.8328 422.857 99.3357 423.206 98.4823C426.218 91.1156 431.232 86.7503 439.306 86.7503C447.736 86.7503 453.6 92.2711 453.6 102.208V103.497C453.6 106.257 452.684 107.361 449.385 107.361H426.477C407.417 107.361 395.871 117.482 395.871 133.492C395.871 150.607 409.067 161.648 427.393 161.648C436.615 161.648 445.474 158.618 451.718 151.869C452.946 150.542 455.616 151.351 455.616 153.158V157.645Z" fill="#303136"/>
<path d="M527.652 143.246C518.746 143.246 512.241 139.549 509.034 132.757C508.645 131.933 507.741 131.453 506.857 131.677L488.32 136.369C487.367 136.611 486.78 137.577 487.063 138.518C491.756 154.103 507.453 161.648 526.735 161.648C551.476 161.648 565.588 148.95 565.588 131.652C565.588 98.1598 512.624 109.569 512.624 93.0071C512.624 87.4864 517.205 83.99 525.452 83.99C533.66 83.99 539.156 88.4757 541.79 95.3544C542.117 96.2077 542.992 96.7431 543.89 96.573L562.81 92.9916C563.821 92.8001 564.468 91.7964 564.176 90.8097C559.837 76.1569 547.64 66.1397 525.636 66.1397C501.444 66.1397 488.616 79.0213 488.616 95.2154C488.616 129.812 541.763 119.507 541.763 133.86C541.763 139.565 536.998 143.246 527.652 143.246Z" fill="#303136"/>
<path d="M609.986 143.246C601.08 143.246 594.575 139.549 591.368 132.757C590.979 131.933 590.075 131.453 589.191 131.677L570.654 136.369C569.701 136.611 569.114 137.577 569.397 138.518C574.09 154.103 589.787 161.648 609.069 161.648C633.81 161.648 647.922 148.95 647.922 131.652C647.922 98.1598 594.958 109.569 594.958 93.0071C594.958 87.4864 599.539 83.99 607.786 83.99C615.994 83.99 621.49 88.4757 624.124 95.3544C624.451 96.2077 625.326 96.7431 626.224 96.573L645.144 92.9916C646.155 92.8001 646.803 91.7964 646.51 90.8097C642.171 76.1569 629.974 66.1397 607.97 66.1397C583.779 66.1397 570.95 79.0213 570.95 95.2154C570.95 129.812 624.097 119.507 624.097 133.86C624.097 139.565 619.332 143.246 609.986 143.246Z" fill="#303136"/>
<path d="M671.089 158.07C671.285 158.874 672.006 159.44 672.834 159.44H701.339C702.173 159.44 702.896 158.867 703.087 158.056L717.606 96.3196L732.125 158.056C732.316 158.867 733.04 159.44 733.873 159.44H763.298C764.124 159.44 764.844 158.875 765.041 158.073L786.519 70.5698C786.796 69.4393 785.94 68.3479 784.775 68.3479H764.518C763.667 68.3479 762.933 68.9456 762.76 69.7789L748.395 139.197L730.597 69.6974C730.394 68.9034 729.678 68.3479 728.858 68.3479H706.196C705.364 68.3479 704.642 68.9186 704.449 69.7272L687.917 139.197L673.732 69.7833C673.562 68.9479 672.826 68.3479 671.973 68.3479H651.532C650.369 68.3479 649.513 69.4368 649.788 70.5665L671.089 158.07Z" fill="#303136"/>
<path d="M834.938 161.648C862.428 161.648 881.305 140.301 881.305 113.986C881.305 87.4864 862.428 66.1397 834.938 66.1397C807.632 66.1397 788.572 87.4864 788.572 113.986C788.572 140.301 807.632 161.648 834.938 161.648ZM834.938 139.749C823.576 139.749 814.779 130.18 814.779 113.986C814.779 97.7918 823.576 88.0385 834.938 88.0385C846.301 88.0385 855.281 97.7918 855.281 113.986C855.281 130.18 846.301 139.749 834.938 139.749Z" fill="#303136"/>
<path d="M917.453 111.226C917.453 95.5835 925.333 91.903 937.429 91.903C939.748 91.903 942.295 92.1331 944.71 92.5934C945.733 92.7884 946.747 92.1353 946.928 91.1101L950.765 69.4388C950.9 68.6776 950.535 67.9057 949.824 67.6028C947.62 66.6643 944.893 66.1397 941.644 66.1397C929.365 66.1397 919.835 73.3166 915.254 87.8545V70.1423C915.254 69.1513 914.45 68.3479 913.458 68.3479H893.591C892.599 68.3479 891.796 69.1513 891.796 70.1423V157.645C891.796 158.636 892.599 159.44 893.591 159.44H915.657C916.649 159.44 917.453 158.636 917.453 157.645V111.226Z" fill="#303136"/>
<path d="M998.183 140.301C984.988 140.301 978.024 129.444 978.024 113.986C978.024 98.5279 984.988 87.4864 998.183 87.4864C1011.38 87.4864 1018.34 98.5279 1018.34 113.986C1018.34 129.444 1011.38 140.301 998.183 140.301ZM1019.81 157.645C1019.81 158.636 1020.61 159.44 1021.6 159.44H1042.2C1043.2 159.44 1044 158.636 1044 157.645V41.8863C1044 40.8952 1043.2 40.0919 1042.2 40.0919H1020.87C1019.88 40.0919 1019.08 40.8952 1019.08 41.8863V81.0456C1013.39 70.3722 1003.86 66.1397 991.769 66.1397C968.127 66.1397 952 86.7503 952 113.986C952 141.221 968.127 161.648 991.769 161.648C1004.6 161.648 1014.49 156.495 1019.81 143.246V157.645Z" fill="#303136"/>
</g>
<defs>
<clipPath id="clip0_1_2">
<rect width="1044" height="200" fill="white"/>
</clipPath>
</defs>
</svg>
