<svg width="800" height="871" viewBox="0 0 800 871" fill="none" xmlns="http://www.w3.org/2000/svg">
<g clip-path="url(#clip0_1_2)">
<path d="M432.926 0C463.337 0 555.06 16.9231 639.206 81.2857C723.437 145.717 800 257.633 800 447.423C800 599.379 732.98 701.689 649.203 767.785C565.48 833.841 465.04 863.724 398.049 870.991L397.974 871H57.1429C25.5829 871 0 845.43 0 813.885V362.033C0 337.66 28.5857 324.489 47.1286 340.318L547.811 767.785L16.1943 221.899C5.81143 211.236 0 196.943 0 182.062V57.506C0 25.7473 25.6657 0 57.3914 0H432.926Z" fill="white"/>
</g>
<defs>
<clipPath id="clip0_1_2">
<rect width="800" height="871" fill="white"/>
</clipPath>
</defs>
</svg>
